<?xml version="1.0" standalone="no"?><!DOCTYPE svg PUBLIC "-//W3C//DTD SVG 1.1//EN" "http://www.w3.org/Graphics/SVG/1.1/DTD/svg11.dtd"><svg t="1769147814597" class="icon" viewBox="0 0 1024 1024" version="1.1" xmlns="http://www.w3.org/2000/svg" p-id="2374" xmlns:xlink="http://www.w3.org/1999/xlink" width="200" height="200"><path d="M776.832 489.386667a32 32 0 1 1-45.226667 45.269333l-235.52-235.477333a32 32 0 0 1 45.269334-45.226667l235.52 235.434667z" p-id="2375"></path><path d="M776.832 534.656a32 32 0 0 0-45.226667-45.226667l-235.52 235.477334a32 32 0 1 0 45.269334 45.226666l235.52-235.477333z" p-id="2376"></path><path d="M269.866667 480.085333h484.394666a32 32 0 0 1 0 64H269.866667a32 32 0 0 1 0-64z" p-id="2377"></path></svg>