<?xml version="1.0" standalone="no"?><!DOCTYPE svg PUBLIC "-//W3C//DTD SVG 1.1//EN" "http://www.w3.org/Graphics/SVG/1.1/DTD/svg11.dtd"><svg t="1769148934791" class="icon" viewBox="0 0 1024 1024" version="1.1" xmlns="http://www.w3.org/2000/svg" p-id="3750" xmlns:xlink="http://www.w3.org/1999/xlink" width="200" height="200"><path d="M53.333333 512C53.333333 258.688 258.688 53.333333 512 53.333333a32 32 0 0 1 0 64A394.666667 394.666667 0 1 0 906.666667 512a32 32 0 0 1 64 0c0 253.312-205.354667 458.666667-458.666667 458.666667S53.333333 765.312 53.333333 512z" p-id="3751"></path><path d="M480 512V256a32 32 0 0 1 64 0v256a32 32 0 0 1-64 0z" p-id="3752"></path><path d="M512 480h256a32 32 0 0 1 0 64h-256a32 32 0 0 1 0-64zM906.666667 512c0-6.912-0.170667-13.824-0.554667-20.650667a32.042667 32.042667 0 0 1 63.914667-3.370666c0.426667 7.978667 0.64 16 0.64 24.021333a32 32 0 0 1-64 0z m-7.68-182.826667a32 32 0 0 1 41.301333 18.389334c5.717333 14.890667 10.666667 30.122667 14.848 45.653333a32 32 0 1 1-61.781333 16.554667 391.594667 391.594667 0 0 0-12.8-39.253334 32.042667 32.042667 0 0 1 18.389333-41.386666zM823.466667 218.624a32 32 0 0 1 45.013333 4.693333c10.026667 12.416 19.498667 25.386667 28.245333 38.826667a32 32 0 0 1-53.674666 34.901333 397.056 397.056 0 0 0-24.32-33.408 32 32 0 0 1 4.693333-45.013333z m-105.898667-81.92a32 32 0 0 1 44.288-9.386667c13.44 8.704 26.410667 18.176 38.826667 28.245334a32 32 0 0 1-40.32 49.706666 396.501333 396.501333 0 0 0-33.408-24.32 32 32 0 0 1-9.386667-44.288z m-126.037333-45.226667a32 32 0 0 1 39.253333-22.613333c15.530667 4.181333 30.762667 9.130667 45.653333 14.848a32 32 0 1 1-22.997333 59.733333 391.253333 391.253333 0 0 0-39.253333-12.8 32 32 0 0 1-22.613334-39.125333z m-55.552-37.546666a32 32 0 1 1-3.328 63.957333A401.322667 401.322667 0 0 0 512 117.333333a32 32 0 0 1 0-64c8.021333 0 16.042667 0.213333 24.021333 0.64z" p-id="3753"></path></svg>